{"title":"The Heat 2013 HDRip x264 AAC - ViZNU [P2PDL]","uid":8802795,"size":425572649,"categoryP":"video","categoryS":"movies","magnet":"?xt=urn:btih:6ed7d863f55c7034942ab1ef1c485b67881ccadf&amp;dn=The+Heat+2013+HDRip+x264+AAC+-+ViZNU+%5BP2PDL%5D&amp;tr=udp%3A%2F%2Ftracker.openbittorrent.com%3A80&amp;tr=udp%3A%2F%2Fopen.demonii.com%3A1337&amp;tr=udp%3A%2F%2Ftracker.coppersurfer.tk%3A6969&amp;tr=udp%3A%2F%2Fexodus.desync.com%3A6969","seeders":2,"leechers":0,"uploader":"ValidusVyto","files":-1,"time":1376250574,"description":"_______ Visit us at our Semi Public Bittorrent Community ________\n  &lt;a href=&quot;\nhttp://p2pdl.com&quot; rel=&quot;nofollow&quot; target=&quot;_NEW&quot;&gt;\nhttp://p2pdl.com&lt;/a&gt;  _____________________________ &lt;a href=&quot; http://p2pdl.com&quot; rel=&quot;nofollow&quot; target=&quot;_NEW&quot;&gt; http://p2pdl.com&lt;/a&gt;\n\n\n\nThe Heat 2013 HDRip x264 AAC - ViZNU\n\n\nGenre: Action | Comedy | Crime\nPlot: An uptight FBI Special Agent is paired with a foul-mouthed Boston cop to take\ndown a ruthless drug lord.\nDirector: Paul Feig\nStars: Sandra Bullock, Melissa McCarthy, Demian Bichir.\nRated: R for pervasive language, strong crude content and some violence.\n\n\nIMDb: &lt;a href=&quot;\nhttp://www.imdb.com/title/tt2404463/&quot; rel=&quot;nofollow&quot; target=&quot;_NEW&quot;&gt;\nhttp://www.imdb.com/title/tt2404463/&lt;/a&gt;\n\nTrailer:\n\n\nFormat                         : MPEG-4\nFormat profile                 : Base Media\nFile size                      : 402 MiB\nDuration                       : 1h 52mn\nOverall bit rate               : 502 Kbps\n\nVideo\nFormat                         : AVC\nBit rate                       : 458 Kbps\nWidth                          : 720 pixels\nHeight                         : 400 pixels\nDisplay aspect ratio           : 16:9\nFrame rate mode                : Constant\nFrame rate                     : 30.000 fps\nBit depth                      : 10 bits\nStream size                    : 367 MiB (91%)\nWriting library                : x264 core 133 r2334\n\nAudio\nFormat                         : AAC\nBit rate mode                  : Variable\nBit rate                       : 40.0 Kbps\nChannel(s)                     : 2 channels\nChannel positions              : Front: L R\nSampling rate                  : 44.1 KHz\nStream size                    : 32.1 MiB (8%)\n\nSubtitle                       : N/a\n\nNote: Used KingStoner's SDTV 720p source.\n &lt;a href=&quot;\nhttp://ultraimg.com/images/lbqf3.png&quot; rel=&quot;nofollow&quot; target=&quot;_NEW&quot;&gt;\nhttp://ultraimg.com/images/lbqf3.png&lt;/a&gt; &lt;a href=&quot;\nhttp://ultraimg.com/images/7feLs.png&quot; rel=&quot;nofollow&quot; target=&quot;_NEW&quot;&gt;\nhttp://ultraimg.com/images/7feLs.png&lt;/a&gt; &lt;a href=&quot;\nhttp://ultraimg.com/images/axgAi.png&quot; rel=&quot;nofollow&quot; target=&quot;_NEW&quot;&gt;\nhttp://ultraimg.com/images/axgAi.png&lt;/a&gt; &lt;a href=&quot;\nhttp://ultraimg.com/images/nxe7H.png&quot; rel=&quot;nofollow&quot; target=&quot;_NEW&quot;&gt;\nhttp://ultraimg.com/images/nxe7H.png&lt;/a&gt; &lt;a href=&quot;\nhttp://ultraimg.com/images/kWuRL.png&quot; rel=&quot;nofollow&quot; target=&quot;_NEW&quot;&gt;\nhttp://ultraimg.com/images/kWuRL.png&lt;/a&gt; &lt;a href=&quot;\nhttp://ultraimg.com/images/qjmAT.png&quot; rel=&quot;nofollow&quot; target=&quot;_NEW&quot;&gt;\nhttp://ultraimg.com/images/qjmAT.png&lt;/a&gt;\n\n\n----------------------------------------------------------------------------------------------------\n\n\nEncoded using revolutionary 10bit encoding, which enables us to provide you more crispier \nand sharper images at small sizes, just make sure you follow our instructions without a fault.\nRecommend to you to use latest version of VLC player. Install K-Lite Codec Pack or shark007 codecs\nin case of any kind of problem in playback (For non-VLC Media Player users). Alternatively, install\nCore AVC codecs, the fastest decoder that there is coupled with Community Center Codec Pack and play\non Windows Media Player Classic. Check sample to be sure.\nEnjoy!\n\nEncoder Notes:Looking For Early Access To Anything You Can Provide DVDScr, R5, DVDR, BluRay, Direct\nAudio, Music Releases and Seedboxes. We require dedicated servers, so as to do more \nand fast releases of movies.\nIf You Got anything to offer please contact us at &quot;&lt;a class=&quot;__cf_email__&quot; href=&quot;/cdn-cgi/l/email-protection&quot; data-cfemail=&quot;fd8d8f9abd95888e95d39e9290&quot;&gt;[email&amp;#160;protected]&lt;/a&gt;&lt;script cf-hash='f9e31' type=&quot;text/javascript&quot;&gt;\n/* &lt;![CDATA[ */!function(){try{var t=&quot;currentScript&quot;in document?document.currentScript:function(){for(var t=document.getElementsByTagName(&quot;script&quot;),e=t.length;e--;)if(t[e].getAttribute(&quot;cf-hash&quot;))return t[e]}();if(t&amp;&amp;t.previousSibling){var e,r,n,i,c=t.previousSibling,a=c.getAttribute(&quot;data-cfemail&quot;);if(a){for(e=&quot;&quot;,r=parseInt(a.substr(0,2),16),n=2;a.length-n;n+=2)i=parseInt(a.substr(n,2),16)^r,e+=String.fromCharCode(i);e=document.createTextNode(e),c.parentNode.replaceChild(e,c)}}}catch(u){}}();/* ]]&gt; */&lt;/script&gt;&quot;.\n\nFace book Fan Page:  \nSearch P2PDL on Face Book and hit like :)\n\nMore our team uploads can be found here: &lt;a href=&quot;\nhttp://thepiratebay.se/user/vitamin_x&quot; rel=&quot;nofollow&quot; target=&quot;_NEW&quot;&gt;\nhttp://thepiratebay.se/user/vitamin_x&lt;/a&gt;","torrent":{"xt":"urn:btih:6ed7d863f55c7034942ab1ef1c485b67881ccadf","amp;dn":"The+Heat+2013+HDRip+x264+AAC+-+ViZNU+%5BP2PDL%5D","amp;tr":["udp%3A%2F%2Ftracker.openbittorrent.com%3A80","udp%3A%2F%2Fopen.demonii.com%3A1337","udp%3A%2F%2Ftracker.coppersurfer.tk%3A6969","udp%3A%2F%2Fexodus.desync.com%3A6969"],"infoHash":"6ed7d863f55c7034942ab1ef1c485b67881ccadf","infoHashBuffer":{"type":"Buffer","data":[110,215,216,99,245,92,112,52,148,42,177,239,28,72,91,103,136,28,202,223]},"announce":[],"urlList":[]}}